<?xml version="1.0" encoding="UTF-8"?>
<svg version="1.1" xmlns="http://www.w3.org/2000/svg" width="651" height="655" viewBox="0 0 651 655">
<path d="M0 0 C214.83 0 429.66 0 651 0 C651 216.15 651 432.3 651 655 C436.17 655 221.34 655 0 655 C0 438.85 0 222.7 0 0 Z " fill="#FEFEFE" transform="translate(0,0)"/>
<path d="M0 0 C5.94 0 11.88 0 18 0 C19.12967143 3.95384999 20.25146764 7.88981916 21.296875 11.86328125 C32.00393846 52.15720943 48.33933839 89.62199582 74.75 122.22265625 C76 124 76 124 76 126 C76.66 126 77.32 126 78 126 C78.99 128.475 78.99 128.475 80 131 C80.66 131 81.32 131 82 131 C83.49629179 132.6785513 84.92292661 134.41958898 86.3125 136.1875 C90.02928165 140.90131306 93.7999495 145.2399596 98.5 149 C101.72560674 151.5804854 104.57216436 154.45890827 107.37890625 157.48828125 C142.78415756 194.66823188 195.31979181 214.29802688 244 226 C244 231.94 244 237.88 244 244 C190.87 244 137.74 244 83 244 C83 216.61 83 189.22 83 161 C55.61 161 28.22 161 0 161 C0 107.87 0 54.74 0 0 Z " fill="#010101" transform="translate(27,393)"/>
<path d="M0 0 C53.13 0 106.26 0 161 0 C161 27.39 161 54.78 161 83 C188.39 83 215.78 83 244 83 C244 136.13 244 189.26 244 244 C238.06 244 232.12 244 226 244 C223.76836511 237.30509534 223.76836511 237.30509534 223.02734375 233.734375 C216.01652799 201.40781864 203.03322285 170.72207138 185 143 C184.32420898 141.95030029 184.32420898 141.95030029 183.63476562 140.87939453 C170.18783203 120.14461553 153.2034378 99.17018677 133.8125 83.6875 C130.92374662 81.37023442 128.05734039 79.04966233 125.2578125 76.625 C116.70896718 69.23652427 107.53602876 63.0377129 98 57 C97.30777344 56.56155762 96.61554688 56.12311523 95.90234375 55.67138672 C70.15048797 39.55166775 41.27065824 27.11444179 11.38110352 21.34301758 C10.62240967 21.19501709 9.86371582 21.0470166 9.08203125 20.89453125 C8.41405518 20.76925049 7.7460791 20.64396973 7.05786133 20.51489258 C5 20 5 20 0 18 C0 12.06 0 6.12 0 0 Z " fill="#000000" transform="translate(377,43)"/>
<path d="M0 0 C5.94 0 11.88 0 18 0 C18 53.13 18 106.26 18 161 C-9.39 161 -36.78 161 -65 161 C-65 188.39 -65 215.78 -65 244 C-118.13 244 -171.26 244 -226 244 C-226 238.06 -226 232.12 -226 226 C-218.17342263 223.76383504 -218.17342263 223.76383504 -214.50390625 222.88671875 C-194.11583313 217.95874693 -194.11583313 217.95874693 -174.66796875 210.2265625 C-171.86378728 208.93737805 -169.03211735 207.90979977 -166.125 206.875 C-151.68884672 201.41406851 -137.8773815 193.45726418 -125 185 C-124.39945801 184.6090918 -123.79891602 184.21818359 -123.18017578 183.81542969 C-88.23363891 160.94294345 -60.49184047 130.95668703 -38 96 C-37.57090332 95.34596191 -37.14180664 94.69192383 -36.69970703 94.01806641 C-28.68358734 81.76701555 -22.88342435 68.36959768 -17 55 C-16.66307129 54.2359082 -16.32614258 53.47181641 -15.97900391 52.68457031 C-8.63649867 35.8129593 -4.28873338 17.8380946 0 0 Z " fill="#000000" transform="translate(603,393)"/>
<path d="M0 0 C53.13 0 106.26 0 161 0 C161 5.94 161 11.88 161 18 C156.96713701 19.15224657 152.97947175 20.28341258 148.91796875 21.296875 C106.61374737 31.98196184 68.56906943 50.27974936 34.5625 77.6875 C33.58700195 78.47120972 33.58700195 78.47120972 32.59179688 79.27075195 C28.70546956 82.44761484 25.10491073 85.79097266 21.61328125 89.39770508 C19.96145831 91.03827923 18.23382351 92.52038721 16.4375 94 C-23.57314612 128.75828331 -49.33935068 181.42070596 -62 232 C-62.34330277 233.34646828 -62.68700888 234.69283382 -63.03125 236.0390625 C-63.70154147 238.68919639 -64.35391229 241.34386165 -65 244 C-70.94 244 -76.88 244 -83 244 C-83 190.87 -83 137.74 -83 83 C-55.61 83 -28.22 83 0 83 C0 55.61 0 28.22 0 0 Z " fill="#000000" transform="translate(110,43)"/>
</svg>
